<svg xmlns="http://www.w3.org/2000/svg" xmlns:xlink="http://www.w3.org/1999/xlink" width="500" zoomAndPan="magnify" viewBox="0 0 375 225" height="300" preserveAspectRatio="xMidYMid meet" version="1.0"><defs><g/><clipPath id="30fbaad7ab"><path d="M 80.984375 4.261719 L 289.484375 4.261719 L 289.484375 212.761719 L 80.984375 212.761719 Z M 80.984375 4.261719 " clip-rule="nonzero"/></clipPath></defs><g clip-path="url(#30fbaad7ab)"><path fill="#ff6871" d="M 185.234375 4.261719 C 127.660156 4.261719 80.984375 50.9375 80.984375 108.511719 C 80.984375 166.089844 127.660156 212.761719 185.234375 212.761719 C 242.808594 212.761719 289.484375 166.089844 289.484375 108.511719 C 289.484375 50.9375 242.808594 4.261719 185.234375 4.261719 " fill-opacity="1" fill-rule="nonzero"/></g><g fill="#ffde59" fill-opacity="1"><g transform="translate(4.974609, 147.679603)"><g><path d="M 41.6875 -77.09375 C 52.976562 -77.09375 61.640625 -74.03125 67.671875 -67.90625 C 73.710938 -61.789062 76.734375 -52.972656 76.734375 -41.453125 C 76.734375 -27.785156 73.21875 -17.28125 66.1875 -9.9375 C 59.164062 -2.601562 49.101562 1.0625 36 1.0625 C 27.789062 1.0625 18.160156 0.707031 7.109375 0 L 8.296875 -22.5 L 7.109375 -76.625 Z M 40.5 -16.578125 C 44.207031 -16.578125 47.03125 -18.054688 48.96875 -21.015625 C 50.90625 -23.972656 51.875 -28.847656 51.875 -35.640625 C 51.875 -41.410156 51.476562 -45.953125 50.6875 -49.265625 C 49.894531 -52.578125 48.628906 -54.960938 46.890625 -56.421875 C 45.160156 -57.890625 42.753906 -58.625 39.671875 -58.625 C 36.671875 -58.625 33.710938 -58.460938 30.796875 -58.140625 L 29.953125 -24.875 L 30.203125 -17.53125 C 34.929688 -16.894531 38.363281 -16.578125 40.5 -16.578125 Z M 40.5 -16.578125 "/></g></g></g><g fill="#ffde59" fill-opacity="1"><g transform="translate(83.714798, 147.679603)"><g><path d="M 61.21875 -18.953125 L 62.53125 -17.296875 L 61.109375 0 L 7.109375 0 L 8.296875 -22.5 L 7.109375 -76.625 L 62.046875 -76.625 L 63.359375 -74.96875 L 61.8125 -57.671875 L 42.984375 -58.375 L 30.796875 -58.375 L 30.546875 -47.609375 L 42.28125 -47.609375 L 54.59375 -47.953125 L 55.890625 -46.296875 L 54.46875 -29.015625 L 40.734375 -29.375 L 30.078125 -29.375 L 29.953125 -24.875 L 30.203125 -18.234375 L 41.5625 -18.234375 Z M 61.21875 -18.953125 "/></g></g></g><g fill="#7ed957" fill-opacity="1"><g transform="translate(147.767576, 147.679603)"><g><path d="M 41.6875 -77.921875 C 48.476562 -77.921875 54.875 -76.851562 60.875 -74.71875 L 56.84375 -55.890625 L 55.296875 -54.953125 C 53.242188 -56.054688 50.875 -56.941406 48.1875 -57.609375 C 45.507812 -58.285156 43.023438 -58.625 40.734375 -58.625 C 35.921875 -58.625 32.445312 -57.21875 30.3125 -54.40625 C 28.1875 -51.601562 27.125 -46.925781 27.125 -40.375 C 27.125 -32.71875 28.34375 -27.132812 30.78125 -23.625 C 33.226562 -20.113281 37.0625 -18.359375 42.28125 -18.359375 C 44.488281 -18.359375 46.953125 -18.570312 49.671875 -19 C 52.398438 -19.4375 54.789062 -20.050781 56.84375 -20.84375 L 58.734375 -19.65625 L 56.84375 -0.953125 C 52.101562 0.546875 46.613281 1.296875 40.375 1.296875 C 27.664062 1.296875 18.09375 -2.015625 11.65625 -8.640625 C 5.226562 -15.273438 2.015625 -24.945312 2.015625 -37.65625 C 2.015625 -50.445312 5.46875 -60.351562 12.375 -67.375 C 19.28125 -74.40625 29.050781 -77.921875 41.6875 -77.921875 Z M 41.6875 -77.921875 "/></g></g></g><g fill="#7ed957" fill-opacity="1"><g transform="translate(208.628409, 147.679603)"><g><path d="M 40.375 -78.046875 C 51.507812 -78.046875 60.113281 -74.75 66.1875 -68.15625 C 72.269531 -61.5625 75.3125 -52.265625 75.3125 -40.265625 C 75.3125 -27.003906 71.972656 -16.738281 65.296875 -9.46875 C 58.628906 -2.207031 49.179688 1.421875 36.953125 1.421875 C 25.816406 1.421875 17.207031 -1.910156 11.125 -8.578125 C 5.050781 -15.253906 2.015625 -24.710938 2.015625 -36.953125 C 2.015625 -50.054688 5.347656 -60.179688 12.015625 -67.328125 C 18.691406 -74.472656 28.144531 -78.046875 40.375 -78.046875 Z M 38.25 -59.09375 C 35.164062 -59.09375 32.832031 -58.554688 31.25 -57.484375 C 29.675781 -56.421875 28.550781 -54.546875 27.875 -51.859375 C 27.207031 -49.179688 26.875 -45.273438 26.875 -40.140625 C 26.875 -33.585938 27.226562 -28.613281 27.9375 -25.21875 C 28.65625 -21.820312 29.863281 -19.453125 31.5625 -18.109375 C 33.257812 -16.773438 35.765625 -16.109375 39.078125 -16.109375 C 42.160156 -16.109375 44.488281 -16.640625 46.0625 -17.703125 C 47.644531 -18.765625 48.769531 -20.65625 49.4375 -23.375 C 50.113281 -26.101562 50.453125 -30.035156 50.453125 -35.171875 C 50.453125 -41.640625 50.09375 -46.570312 49.375 -49.96875 C 48.664062 -53.363281 47.460938 -55.734375 45.765625 -57.078125 C 44.066406 -58.421875 41.5625 -59.09375 38.25 -59.09375 Z M 38.25 -59.09375 "/></g></g></g><g fill="#7ed957" fill-opacity="1"><g transform="translate(285.947722, 147.679603)"><g><path d="M 75.671875 -24.984375 L 76.625 0 L 50.796875 0 L 29.25 -40.96875 L 27.828125 -40.96875 L 27.703125 -27.703125 L 28.65625 0 L 7.109375 0 L 8.296875 -22.5 L 7.109375 -76.625 L 32.921875 -76.625 L 54.46875 -35.640625 L 55.890625 -35.640625 L 55.1875 -75.796875 L 76.96875 -77.09375 Z M 75.671875 -24.984375 "/></g></g></g></svg>