<svg xmlns="http://www.w3.org/2000/svg" xmlns:xlink="http://www.w3.org/1999/xlink" width="500" zoomAndPan="magnify" viewBox="0 0 375 374.999991" height="500" preserveAspectRatio="xMidYMid meet" version="1.0"><defs><clipPath id="6e464bfdac"><path d="M 46.46875 0 L 327.71875 0 L 327.71875 375 L 46.46875 375 Z M 46.46875 0 " clip-rule="nonzero"/></clipPath><clipPath id="652d584546"><path d="M 56 10.578125 L 318.410156 10.578125 L 318.410156 360 L 56 360 Z M 56 10.578125 " clip-rule="nonzero"/></clipPath></defs><g clip-path="url(#6e464bfdac)"><path fill="#000000" d="M 327.550781 140.625 C 327.550781 204.636719 241.960938 318.601562 204.429688 365.625 C 195.433594 376.832031 178.753906 376.832031 169.757812 365.625 C 132.230469 318.601562 46.636719 204.636719 46.636719 140.625 C 46.636719 62.988281 109.550781 0 187.09375 0 C 264.636719 0 327.550781 62.988281 327.550781 140.625 Z M 327.550781 140.625 " fill-opacity="1" fill-rule="nonzero"/></g><g clip-path="url(#652d584546)"><path fill="#ff1616" d="M 318.253906 141.640625 C 318.253906 201.300781 238.367188 307.515625 203.339844 351.339844 C 194.941406 361.785156 179.375 361.785156 170.976562 351.339844 C 135.949219 307.515625 56.0625 201.300781 56.0625 141.640625 C 56.0625 69.28125 114.785156 10.578125 187.160156 10.578125 C 259.535156 10.578125 318.253906 69.28125 318.253906 141.640625 Z M 318.253906 141.640625 " fill-opacity="1" fill-rule="nonzero"/></g></svg>